# xmcd
#
# Track frame offsets:
#	182
#	14832
#	27065
#	38305
#	49960
#	59692
#	77485
#	87425
#	98927
#	111245
#	121495
#	130867
#	139157
#	156152
#	166982
#	177917
#	189422
#	205030
#	216672
#	227197
#	239275
#	254587
#	267297
#	278932
#	288282
#
# Disc length: 3992
#
# Revision: 1
# Processed by: cddbd v1.5.1PL0 Copyright (c) Steve Scherf et al.
# Submitted via: ExactAudioCopy v0.95a5
# Normalized: r0:TDELIM( - )
#
DISCID=720f9619
DTITLE=Various Artist - Country Superstars - 100 Greatest  Hits
DYEAR=1994
DGENRE=Country
TTITLE0=Billie Jo Spears - Mr. Walker, It's All Over
TTITLE1=Johnny Cash - I Walk The Line
TTITLE2=George Jones - I'll Share My World With You
TTITLE3=Patsy Cline - Walkin' After Midnight
TTITLE4=Willie Nelson - Let's Pretend
TTITLE5=Johnny Lee - Lookin' For Love
TTITLE6=Brenda Lee - I'm Sorry
TTITLE7=Kenny Rogers - Me And Bobby McGee
TTITLE8=Willie Nelson - Shelter Of My Arms
TTITLE9=David Houston - You Mean The World To Me
TTITLE10=Roger Miller - Chug-A-Lug
TTITLE11=Johnny Cash - Guess Things Happen That Way
TTITLE12=Razzy Baily - Teddy Bear
TTITLE13=Waylon Jennings - Sally Was A Good Old Girl
TTITLE14=George Jones - Tender Years
TTITLE15=Johnny Paycheck - Take This Job And Shove It
TTITLE16=Cal Smith - Country Bumpkin
TTITLE17=Brenda Lee - Silver Threads And Golden Needles
TTITLE18=Waylon Jennings - Burning Memories
TTITLE19=Johnny Cash - You're The Nearest Thing To Heaven
TTITLE20=Billie Jo Spears - Blanket On The Ground
TTITLE21=David Houston - My Elusive Dreams
TTITLE22=Roger Miller - Walkin' In The Sunshine
TTITLE23=Max Davis - Lookin At Linda
TTITLE24=Donna Fargo - The Happiest Girl In The Whole U.S.A.
EXTD=
EXTT0=
EXTT1=
EXTT2=
EXTT3=
EXTT4=
EXTT5=
EXTT6=
EXTT7=
EXTT8=
EXTT9=
EXTT10=
EXTT11=
EXTT12=
EXTT13=
EXTT14=
EXTT15=
EXTT16=
EXTT17=
EXTT18=
EXTT19=
EXTT20=
EXTT21=
EXTT22=
EXTT23=
EXTT24=
PLAYORDER=
